<svg xmlns="http://www.w3.org/2000/svg" viewBox="0 0 24 24" width="24" height="24">
  <path fill="white" d="M12 2.2c3.3 0 3.7 0 5 0.1 1.3 0.1 2.4 0.3 3.2 1.1 0.8 0.8 1 2 1.1 3.2 0.1 1.3 0.1 1.7 0.1 5s0 3.7-0.1 5c-0.1 1.3-0.3 2.4-1.1 3.2-0.8 0.8-2 1-3.2 1.1-1.3 0.1-1.7 0.1-5 0.1s-3.7 0-5-0.1c-1.3-0.1-2.4-0.3-3.2-1.1-0.8-0.8-1-2-1.1-3.2-0.1-1.3-0.1-1.7-0.1-5s0-3.7 0.1-5c0.1-1.3 0.3-2.4 1.1-3.2 0.8-0.8 2-1 3.2-1.1 1.3-0.1 1.7-0.1 5-0.1zM12 0C8.7 0 8.3 0 7.1 0.1 5.9 0.1 4.8 0.3 3.9 1.2 3.1 2 2.9 3.1 2.8 4.3 2.9 5.5 2.9 5.9 2.9 12c0 6.1 0 6.5 0.1 7.7 0.1 1.3 0.3 2.4 1.1 3.2 0.8 0.8 2 1 3.2 1.1 1.3 0.1 1.7 0.1 5 0.1s3.7 0 5-0.1c1.3-0.1 2.4-0.3 3.2-1.1 0.8-0.8 1-2 1.1-3.2 0.1-1.3 0.1-1.7 0.1-7.7 0-6.1 0-6.5-0.1-7.7-0.1-1.3-0.3-2.4-1.1-3.2-0.8-0.8-2-1-3.2-1.1-1.3-0.1-1.7-0.1-5-0.1zM12 6.5c2.8 0 5.1 2.3 5.1 5.1S14.8 16.7 12 16.7 6.9 14.4 6.9 12 9.2 6.5 12 6.5zM12 9.5c-1.4 0-2.5 1.1-2.5 2.5s1.1 2.5 2.5 2.5 2.5-1.1 2.5-2.5-1.1-2.5-2.5-2.5z"/>
</svg>
